<mxfile host="app.diagrams.net" agent="5.0" version="24.7.17">
  <diagram name="Blog CI/CD Architecture" id="blog-cicd-architecture">
    <mxGraphModel dx="1422" dy="765" grid="1" gridSize="10" guides="1" tooltips="1" connect="1" arrows="1" fold="1" page="1" pageScale="1" pageWidth="1169" pageHeight="827" math="0" shadow="0">
      <root>
        <mxCell id="0" />
        <mxCell id="1" parent="0" />
        
        <!-- Title -->
        <mxCell id="title" value="Blog Publishing System - Complete CI/CD Architecture" style="text;html=1;strokeColor=none;fillColor=none;align=center;verticalAlign=middle;whiteSpace=wrap;rounded=0;fontSize=20;fontStyle=1;" vertex="1" parent="1">
          <mxGeometry x="285" y="10" width="600" height="30" as="geometry" />
        </mxCell>
        
        <!-- Developer Section -->
        <mxCell id="dev-section" value="Developer Workflow" style="rounded=1;whiteSpace=wrap;html=1;fillColor=#e1d5e7;strokeColor=#9673a6;fontSize=14;fontStyle=1;verticalAlign=top;" vertex="1" parent="1">
          <mxGeometry x="50" y="60" width="280" height="180" as="geometry" />
        </mxCell>
        
        <mxCell id="developer" value="👨‍💻 Developer" style="shape=actor;whiteSpace=wrap;html=1;fillColor=#dae8fc;strokeColor=#6c8ebf;" vertex="1" parent="1">
          <mxGeometry x="80" y="90" width="60" height="80" as="geometry" />
        </mxCell>
        
        <mxCell id="code-changes" value="📝 Code Changes&#xa;• Author attribution&#xa;• Search functionality&#xa;• Admin system&#xa;• Mobile fixes" style="rounded=1;whiteSpace=wrap;html=1;fillColor=#fff2cc;strokeColor=#d6b656;" vertex="1" parent="1">
          <mxGeometry x="160" y="90" width="150" height="80" as="geometry" />
        </mxCell>
        
        <mxCell id="git-push" value="📤 Git Push&#xa;to k8s branch" style="rounded=1;whiteSpace=wrap;html=1;fillColor=#d5e8d4;strokeColor=#82b366;" vertex="1" parent="1">
          <mxGeometry x="160" y="190" width="150" height="40" as="geometry" />
        </mxCell>
        
        <!-- GitHub Section -->
        <mxCell id="github-section" value="GitHub Repository" style="rounded=1;whiteSpace=wrap;html=1;fillColor=#f8cecc;strokeColor=#b85450;fontSize=14;fontStyle=1;verticalAlign=top;" vertex="1" parent="1">
          <mxGeometry x="380" y="60" width="280" height="180" as="geometry" />
        </mxCell>
        
        <mxCell id="github-repo" value="📁 bedtimeblog&#xa;Repository&#xa;(k8s branch)" style="shape=cylinder3;whiteSpace=wrap;html=1;boundedLbl=1;backgroundOutline=1;size=15;fillColor=#dae8fc;strokeColor=#6c8ebf;" vertex="1" parent="1">
          <mxGeometry x="410" y="90" width="100" height="80" as="geometry" />
        </mxCell>
        
        <mxCell id="webhook-config" value="🔗 Webhook&#xa;Configuration&#xa;&#xa;URL: jenkins.ingasti.com&#xa;Secret: HMAC-SHA256&#xa;Events: push" style="rounded=1;whiteSpace=wrap;html=1;fillColor=#fff2cc;strokeColor=#d6b656;" vertex="1" parent="1">
          <mxGeometry x="530" y="90" width="120" height="80" as="geometry" />
        </mxCell>
        
        <mxCell id="webhook-trigger" value="🚀 Webhook Trigger&#xa;POST /github-webhook/" style="rounded=1;whiteSpace=wrap;html=1;fillColor=#d5e8d4;strokeColor=#82b366;" vertex="1" parent="1">
          <mxGeometry x="470" y="190" width="150" height="40" as="geometry" />
        </mxCell>
        
        <!-- Jenkins Section -->
        <mxCell id="jenkins-section" value="Jenkins CI/CD Server (jenkins.ingasti.com)" style="rounded=1;whiteSpace=wrap;html=1;fillColor=#e1d5e7;strokeColor=#9673a6;fontSize=14;fontStyle=1;verticalAlign=top;" vertex="1" parent="1">
          <mxGeometry x="50" y="280" width="610" height="220" as="geometry" />
        </mxCell>
        
        <mxCell id="jenkins-server" value="🏗️ Jenkins Server&#xa;• Caddy Reverse Proxy&#xa;• GitHub Integration&#xa;• Docker Registry" style="shape=cylinder3;whiteSpace=wrap;html=1;boundedLbl=1;backgroundOutline=1;size=15;fillColor=#dae8fc;strokeColor=#6c8ebf;" vertex="1" parent="1">
          <mxGeometry x="80" y="310" width="120" height="80" as="geometry" />
        </mxCell>
        
        <mxCell id="build-pipeline" value="⚙️ Build Pipeline&#xa;(Jenkinsfile.k8s)&#xa;&#xa;1. Checkout code&#xa;2. Build Docker images&#xa;3. Push to registry&#xa;4. Test containers&#xa;5. Update K8s secrets&#xa;6. Deploy to cluster" style="rounded=1;whiteSpace=wrap;html=1;fillColor=#fff2cc;strokeColor=#d6b656;" vertex="1" parent="1">
          <mxGeometry x="220" y="310" width="180" height="120" as="geometry" />
        </mxCell>
        
        <mxCell id="docker-images" value="🐳 Docker Images&#xa;&#xa;Frontend:&#xa;localhost:5000/blog-frontend&#xa;&#xa;Backend:&#xa;localhost:5000/blog-backend" style="rounded=1;whiteSpace=wrap;html=1;fillColor=#d5e8d4;strokeColor=#82b366;" vertex="1" parent="1">
          <mxGeometry x="420" y="310" width="180" height="80" as="geometry" />
        </mxCell>
        
        <mxCell id="k8s-secrets" value="🔐 Kubernetes Secrets&#xa;• Database credentials&#xa;• JWT secrets&#xa;• Environment config" style="rounded=1;whiteSpace=wrap;html=1;fillColor=#ffe6cc;strokeColor=#d79b00;" vertex="1" parent="1">
          <mxGeometry x="420" y="410" width="180" height="60" as="geometry" />
        </mxCell>
        
        <!-- Cloud Server Section -->
        <mxCell id="cloud-section" value="Oracle Cloud Server (ingasti.com)" style="rounded=1;whiteSpace=wrap;html=1;fillColor=#f8cecc;strokeColor=#b85450;fontSize=14;fontStyle=1;verticalAlign=top;" vertex="1" parent="1">
          <mxGeometry x="50" y="540" width="610" height="240" as="geometry" />
        </mxCell>
        
        <mxCell id="k8s-cluster" value="☸️ Kubernetes Cluster&#xa;(k3s)" style="shape=cylinder3;whiteSpace=wrap;html=1;boundedLbl=1;backgroundOutline=1;size=15;fillColor=#dae8fc;strokeColor=#6c8ebf;" vertex="1" parent="1">
          <mxGeometry x="80" y="570" width="100" height="80" as="geometry" />
        </mxCell>
        
        <mxCell id="frontend-pods" value="🌐 Frontend Pods&#xa;• Nginx + React&#xa;• blog.ingasti.com&#xa;• 2 replicas" style="rounded=1;whiteSpace=wrap;html=1;fillColor=#d5e8d4;strokeColor=#82b366;" vertex="1" parent="1">
          <mxGeometry x="200" y="570" width="140" height="80" as="geometry" />
        </mxCell>
        
        <mxCell id="backend-pods" value="⚙️ Backend Pods&#xa;• Node.js + Express&#xa;• bapi.ingasti.com&#xa;• 2 replicas" style="rounded=1;whiteSpace=wrap;html=1;fillColor=#ffe6cc;strokeColor=#d79b00;" vertex="1" parent="1">
          <mxGeometry x="360" y="570" width="140" height="80" as="geometry" />
        </mxCell>
        
        <mxCell id="database" value="🗄️ PostgreSQL Database&#xa;(Aiven Cloud)&#xa;• User management&#xa;• Post storage&#xa;• Author attribution" style="rounded=1;whiteSpace=wrap;html=1;fillColor=#e1d5e7;strokeColor=#9673a6;" vertex="1" parent="1">
          <mxGeometry x="520" y="570" width="130" height="80" as="geometry" />
        </mxCell>
        
        <mxCell id="ingress" value="🌍 Ingress Controller&#xa;• SSL Termination&#xa;• Load Balancing&#xa;• Domain Routing" style="rounded=1;whiteSpace=wrap;html=1;fillColor=#fff2cc;strokeColor=#d6b656;" vertex="1" parent="1">
          <mxGeometry x="200" y="680" width="300" height="60" as="geometry" />
        </mxCell>
        
        <!-- End Users Section -->
        <mxCell id="users-section" value="End Users" style="rounded=1;whiteSpace=wrap;html=1;fillColor=#d5e8d4;strokeColor=#82b366;fontSize=14;fontStyle=1;verticalAlign=top;" vertex="1" parent="1">
          <mxGeometry x="720" y="60" width="200" height="720" as="geometry" />
        </mxCell>
        
        <mxCell id="web-users" value="👥 Web Users" style="shape=actor;whiteSpace=wrap;html=1;fillColor=#dae8fc;strokeColor=#6c8ebf;" vertex="1" parent="1">
          <mxGeometry x="750" y="100" width="60" height="80" as="geometry" />
        </mxCell>
        
        <mxCell id="blog-access" value="🌐 blog.ingasti.com&#xa;&#xa;✅ Search functionality&#xa;✅ Mobile navigation&#xa;✅ Author attribution&#xa;✅ Real-time updates" style="rounded=1;whiteSpace=wrap;html=1;fillColor=#fff2cc;strokeColor=#d6b656;" vertex="1" parent="1">
          <mxGeometry x="730" y="200" width="180" height="120" as="geometry" />
        </mxCell>
        
        <mxCell id="admin-users" value="👨‍💼 Admin Users" style="shape=actor;whiteSpace=wrap;html=1;fillColor=#f8cecc;strokeColor=#b85450;" vertex="1" parent="1">
          <mxGeometry x="750" y="350" width="60" height="80" as="geometry" />
        </mxCell>
        
        <mxCell id="admin-access" value="🔐 Admin Dashboard&#xa;&#xa;✅ JWT Authentication&#xa;✅ User management&#xa;✅ Operations center&#xa;✅ Secure access" style="rounded=1;whiteSpace=wrap;html=1;fillColor=#ffe6cc;strokeColor=#d79b00;" vertex="1" parent="1">
          <mxGeometry x="730" y="450" width="180" height="120" as="geometry" />
        </mxCell>
        
        <mxCell id="mobile-users" value="📱 Mobile Users" style="shape=actor;whiteSpace=wrap;html=1;fillColor=#e1d5e7;strokeColor=#9673a6;" vertex="1" parent="1">
          <mxGeometry x="750" y="600" width="60" height="80" as="geometry" />
        </mxCell>
        
        <mxCell id="mobile-access" value="📱 Mobile Experience&#xa;&#xa;✅ Fixed navigation&#xa;✅ Responsive design&#xa;✅ Touch-friendly UI&#xa;✅ Fast loading" style="rounded=1;whiteSpace=wrap;html=1;fillColor=#d5e8d4;strokeColor=#82b366;" vertex="1" parent="1">
          <mxGeometry x="730" y="700" width="180" height="100" as="geometry" />
        </mxCell>
        
        <!-- Flow Arrows -->
        <mxCell id="arrow1" style="edgeStyle=orthogonalEdgeStyle;rounded=0;orthogonalLoop=1;jettySize=auto;html=1;strokeWidth=3;strokeColor=#3399FF;" edge="1" parent="1" source="developer" target="code-changes">
          <mxGeometry relative="1" as="geometry" />
        </mxCell>
        
        <mxCell id="arrow2" style="edgeStyle=orthogonalEdgeStyle;rounded=0;orthogonalLoop=1;jettySize=auto;html=1;strokeWidth=3;strokeColor=#3399FF;" edge="1" parent="1" source="code-changes" target="git-push">
          <mxGeometry relative="1" as="geometry" />
        </mxCell>
        
        <mxCell id="arrow3" style="edgeStyle=orthogonalEdgeStyle;rounded=0;orthogonalLoop=1;jettySize=auto;html=1;strokeWidth=3;strokeColor=#FF6B35;" edge="1" parent="1" source="git-push" target="github-repo">
          <mxGeometry relative="1" as="geometry" />
        </mxCell>
        
        <mxCell id="arrow4" style="edgeStyle=orthogonalEdgeStyle;rounded=0;orthogonalLoop=1;jettySize=auto;html=1;strokeWidth=3;strokeColor=#FF6B35;" edge="1" parent="1" source="webhook-config" target="webhook-trigger">
          <mxGeometry relative="1" as="geometry" />
        </mxCell>
        
        <mxCell id="arrow5" style="edgeStyle=orthogonalEdgeStyle;rounded=0;orthogonalLoop=1;jettySize=auto;html=1;strokeWidth=3;strokeColor=#28A745;" edge="1" parent="1" source="webhook-trigger" target="jenkins-server">
          <mxGeometry relative="1" as="geometry" />
        </mxCell>
        
        <mxCell id="arrow6" style="edgeStyle=orthogonalEdgeStyle;rounded=0;orthogonalLoop=1;jettySize=auto;html=1;strokeWidth=3;strokeColor=#28A745;" edge="1" parent="1" source="jenkins-server" target="build-pipeline">
          <mxGeometry relative="1" as="geometry" />
        </mxCell>
        
        <mxCell id="arrow7" style="edgeStyle=orthogonalEdgeStyle;rounded=0;orthogonalLoop=1;jettySize=auto;html=1;strokeWidth=3;strokeColor=#28A745;" edge="1" parent="1" source="build-pipeline" target="docker-images">
          <mxGeometry relative="1" as="geometry" />
        </mxCell>
        
        <mxCell id="arrow8" style="edgeStyle=orthogonalEdgeStyle;rounded=0;orthogonalLoop=1;jettySize=auto;html=1;strokeWidth=3;strokeColor=#28A745;" edge="1" parent="1" source="build-pipeline" target="k8s-secrets">
          <mxGeometry relative="1" as="geometry" />
        </mxCell>
        
        <mxCell id="arrow9" style="edgeStyle=orthogonalEdgeStyle;rounded=0;orthogonalLoop=1;jettySize=auto;html=1;strokeWidth=3;strokeColor=#6F42C1;" edge="1" parent="1" source="docker-images" target="k8s-cluster">
          <mxGeometry relative="1" as="geometry" />
        </mxCell>
        
        <mxCell id="arrow10" style="edgeStyle=orthogonalEdgeStyle;rounded=0;orthogonalLoop=1;jettySize=auto;html=1;strokeWidth=3;strokeColor=#6F42C1;" edge="1" parent="1" source="k8s-cluster" target="frontend-pods">
          <mxGeometry relative="1" as="geometry" />
        </mxCell>
        
        <mxCell id="arrow11" style="edgeStyle=orthogonalEdgeStyle;rounded=0;orthogonalLoop=1;jettySize=auto;html=1;strokeWidth=3;strokeColor=#6F42C1;" edge="1" parent="1" source="k8s-cluster" target="backend-pods">
          <mxGeometry relative="1" as="geometry" />
        </mxCell>
        
        <mxCell id="arrow12" style="edgeStyle=orthogonalEdgeStyle;rounded=0;orthogonalLoop=1;jettySize=auto;html=1;strokeWidth=3;strokeColor=#6F42C1;" edge="1" parent="1" source="backend-pods" target="database">
          <mxGeometry relative="1" as="geometry" />
        </mxCell>
        
        <mxCell id="arrow13" style="edgeStyle=orthogonalEdgeStyle;rounded=0;orthogonalLoop=1;jettySize=auto;html=1;strokeWidth=3;strokeColor=#FFC107;" edge="1" parent="1" source="ingress" target="web-users">
          <mxGeometry relative="1" as="geometry" />
        </mxCell>
        
        <mxCell id="arrow14" style="edgeStyle=orthogonalEdgeStyle;rounded=0;orthogonalLoop=1;jettySize=auto;html=1;strokeWidth=3;strokeColor=#FFC107;" edge="1" parent="1" source="ingress" target="admin-users">
          <mxGeometry relative="1" as="geometry" />
        </mxCell>
        
        <mxCell id="arrow15" style="edgeStyle=orthogonalEdgeStyle;rounded=0;orthogonalLoop=1;jettySize=auto;html=1;strokeWidth=3;strokeColor=#FFC107;" edge="1" parent="1" source="ingress" target="mobile-users">
          <mxGeometry relative="1" as="geometry" />
        </mxCell>
        
        <!-- Process Steps -->
        <mxCell id="step1" value="1" style="ellipse;whiteSpace=wrap;html=1;aspect=fixed;fillColor=#3399FF;fontColor=white;fontStyle=1;fontSize=16;" vertex="1" parent="1">
          <mxGeometry x="20" y="180" width="30" height="30" as="geometry" />
        </mxCell>
        
        <mxCell id="step2" value="2" style="ellipse;whiteSpace=wrap;html=1;aspect=fixed;fillColor=#FF6B35;fontColor=white;fontStyle=1;fontSize=16;" vertex="1" parent="1">
          <mxGeometry x="350" y="180" width="30" height="30" as="geometry" />
        </mxCell>
        
        <mxCell id="step3" value="3" style="ellipse;whiteSpace=wrap;html=1;aspect=fixed;fillColor=#28A745;fontColor=white;fontStyle=1;fontSize=16;" vertex="1" parent="1">
          <mxGeometry x="20" y="430" width="30" height="30" as="geometry" />
        </mxCell>
        
        <mxCell id="step4" value="4" style="ellipse;whiteSpace=wrap;html=1;aspect=fixed;fillColor=#6F42C1;fontColor=white;fontStyle=1;fontSize=16;" vertex="1" parent="1">
          <mxGeometry x="20" y="680" width="30" height="30" as="geometry" />
        </mxCell>
        
        <mxCell id="step5" value="5" style="ellipse;whiteSpace=wrap;html=1;aspect=fixed;fillColor=#FFC107;fontColor=white;fontStyle=1;fontSize=16;" vertex="1" parent="1">
          <mxGeometry x="690" y="400" width="30" height="30" as="geometry" />
        </mxCell>
        
        <!-- Legend -->
        <mxCell id="legend" value="🔄 CI/CD Flow Legend&#xa;&#xa;1️⃣ Development & Commit&#xa;2️⃣ GitHub Webhook Trigger&#xa;3️⃣ Jenkins Build & Deploy&#xa;4️⃣ Kubernetes Orchestration&#xa;5️⃣ Live Application Access" style="rounded=1;whiteSpace=wrap;html=1;fillColor=#f5f5f5;strokeColor=#666666;fontSize=12;align=left;verticalAlign=top;" vertex="1" parent="1">
          <mxGeometry x="950" y="60" width="200" height="140" as="geometry" />
        </mxCell>
        
      </root>
    </mxGraphModel>
  </diagram>
</mxfile>
